<svg data-v-0dd9719b="" version="1.0" xmlns="http://www.w3.org/2000/svg" xmlns:xlink="http://www.w3.org/1999/xlink" width="100%" height="100%" viewBox="0 0 340.000000 250.000000" preserveAspectRatio="xMidYMid meet" color-interpolation-filters="sRGB" style="margin: auto;"> <rect data-v-0dd9719b="" x="0" y="0" width="100%" height="100%" fill="#fff" fill-opacity="1" class="background"></rect> <rect data-v-0dd9719b="" x="0" y="0" width="100%" height="100%" fill="url(#watermark)" fill-opacity="1" class="watermarklayer"></rect> <g data-v-0dd9719b="" fill="#333" class="newinitialsvg-g newinitialsvg" transform="translate(86.95250253926497,91.20552659034729)"><g class="tp-name" transform="translate(0,0)"><g transform="translate(0, 0)"><g data-gra="path-name" fill="#333" transform="translate(0,3)"><g transform="scale(0.94)"><path d="M32.80 0.69L32.80 0.69L25.17 1.25Q25.42-2.41 25.57-5.47Q25.73-8.52 25.78-10.77L25.78-10.77Q25.86-13.38 25.86-15.51L25.86-15.51Q25.86-16.51 25.84-17.76L25.84-17.76Q25.81-18.82 25.77-20.29Q25.73-21.76 25.64-23.53L25.64-23.53Q24.92-20.17 24.38-17.75Q23.84-15.32 23.51-13.74L23.51-13.74Q23.09-11.88 22.84-10.63L22.84-10.63Q22.45-8.94 22.15-7.24L22.15-7.24Q21.87-5.80 21.62-4.16Q21.37-2.53 21.26-1.19L21.26-1.19L14.15-1.25Q13.57-4.86 12.97-8.17Q12.38-11.49 11.75-14.58Q11.13-17.68 10.48-20.61Q9.82-23.53 9.10-26.42L9.10-26.42Q8.96-23.64 8.91-21.40Q8.85-19.15 8.85-17.51L8.85-17.51Q8.85-12.79 9.10-8.58Q9.35-4.36 9.77-0.22L9.77-0.22L1.58 0Q1.78-2.00 1.91-4.32Q2.05-6.63 2.15-9.01Q2.25-11.38 2.30-13.67Q2.36-15.96 2.39-17.95Q2.41-19.95 2.43-21.51Q2.44-23.06 2.44-23.92L2.44-23.92Q2.44-25.48 2.43-27.47Q2.41-29.47 2.37-31.57Q2.33-33.66 2.28-35.67Q2.22-37.69 2.11-39.27L2.11-39.27Q3.44-39.21 4.63-39.18Q5.83-39.16 6.88-39.16L6.88-39.16Q9.57-39.16 11.07-39.24L11.07-39.24Q11.96-39.27 12.63-39.32L12.63-39.32Q13.02-35.80 13.47-32.45Q13.93-29.11 14.49-25.89Q15.04-22.67 15.69-19.52Q16.35-16.37 17.09-13.24L17.09-13.24Q18.09-16.76 19.01-20.15Q19.93-23.53 20.67-26.84Q21.42-30.14 21.98-33.38Q22.53-36.63 22.84-39.85L22.84-39.85Q23.87-39.79 24.75-39.77Q25.64-39.74 26.42-39.74L26.42-39.74Q28.00-39.74 29.10-39.79Q30.19-39.85 30.91-39.93L30.91-39.93Q31.75-40.02 32.27-40.13L32.27-40.13Q32.05-37.21 31.91-34.36Q31.77-31.50 31.71-28.92Q31.64-26.34 31.62-24.18Q31.61-22.03 31.61-20.56L31.61-20.56Q31.61-19.95 31.62-18.68Q31.64-17.40 31.69-15.67Q31.75-13.93 31.83-11.88Q31.91-9.82 32.04-7.66Q32.16-5.49 32.36-3.36Q32.55-1.22 32.80 0.69Z" transform="translate(-1.5818050193050193, 41.65419884169884)"></path></g></g></g><g transform="translate(30.346645752895753, 0)"><g data-gra="path-name" fill="#333" transform="translate(0,3)"><g transform="scale(0.94)"><path d="M9.82 0.28L9.82 0.28L2.50 1.03Q2.55-0.83 2.59-2.84Q2.64-4.86 2.66-6.85Q2.69-8.85 2.72-10.78Q2.75-12.71 2.75-14.43L2.75-14.43Q2.78-18.48 2.78-22.40L2.78-22.40Q2.75-25.89 2.69-29.17L2.69-29.17Q2.66-30.55 2.62-32.02Q2.58-33.50 2.53-34.91Q2.47-36.33 2.40-37.59Q2.33-38.85 2.22-39.85L2.22-39.85L9.21-40.18Q9.16-38.46 9.12-36.65Q9.07-34.83 9.05-33.04Q9.02-31.25 9.01-29.58Q8.99-27.92 8.99-26.47L8.99-26.47Q8.99-19.23 9.17-12.67Q9.35-6.11 9.82 0.28Z" transform="translate(-2.2200772200772203, 41.65419884169884)"></path></g></g></g><g transform="translate(38.49418436293436, 0)"><g data-gra="path-name" fill="#333" transform="translate(0,3)"><g transform="scale(0.94)"><path d="M25.75-8.35L25.75-8.35Q25.75-5.74 24.81-3.82Q23.87-1.89 22.40-0.62Q20.92 0.64 19.15 1.26Q17.37 1.89 15.73 1.89L15.73 1.89Q13.02 1.89 10.43 0.65Q7.85-0.58 5.81-3.21Q3.77-5.83 2.54-9.95Q1.30-14.07 1.30-19.84L1.30-19.84Q1.30-23.70 1.90-26.72Q2.50-29.75 3.51-32.05Q4.52-34.36 5.90-35.98Q7.27-37.60 8.85-38.62Q10.43-39.63 12.13-40.10Q13.82-40.57 15.46-40.57L15.46-40.57Q17.93-40.57 19.72-39.88Q21.51-39.18 22.67-38.10Q23.84-37.02 24.39-35.69Q24.95-34.36 24.95-33.08L24.95-33.08Q24.95-31.80 24.60-30.79Q24.25-29.78 23.67-29.08Q23.09-28.39 22.28-28.03Q21.48-27.67 20.56-27.67L20.56-27.67Q19.79-27.67 19.01-27.95Q18.23-28.22 17.62-28.75Q17.01-29.28 16.64-30.04Q16.26-30.80 16.26-31.77L16.26-31.77Q16.29-32.33 16.40-32.94L16.40-32.94Q16.51-33.47 16.75-34.09Q16.98-34.72 17.46-35.35L17.46-35.35Q17.04-35.74 16.57-35.98Q16.10-36.22 15.71-36.33L15.71-36.33Q15.24-36.44 14.76-36.49L14.76-36.49Q13.68-36.49 12.85-35.83Q12.02-35.16 11.41-33.98Q10.80-32.80 10.38-31.19Q9.96-29.58 9.73-27.70Q9.49-25.81 9.38-23.74Q9.27-21.67 9.27-19.56L9.27-19.56Q9.27-16.40 9.62-13.33Q9.96-10.27 10.75-7.84Q11.54-5.41 12.86-3.93Q14.18-2.44 16.10-2.44L16.10-2.44Q17.26-2.53 18.20-3.11L18.20-3.11Q18.62-3.36 19.01-3.73Q19.40-4.11 19.72-4.68Q20.04-5.24 20.24-5.99Q20.45-6.74 20.51-7.74L20.51-7.74Q20.04-7.55 19.43-7.55L19.43-7.55Q18.76-7.55 18.14-7.84Q17.51-8.13 17.01-8.64Q16.51-9.16 16.21-9.87Q15.90-10.57 15.90-11.43L15.90-11.43Q15.90-12.74 16.50-13.58Q17.09-14.43 17.87-14.93Q18.65-15.43 19.40-15.64Q20.15-15.85 20.45-15.85L20.45-15.85Q20.67-15.85 21.15-15.78Q21.62-15.71 22.21-15.46Q22.81-15.21 23.44-14.72Q24.06-14.24 24.57-13.40Q25.09-12.57 25.42-11.34Q25.75-10.10 25.75-8.35Z" transform="translate(-1.3042953667953667, 41.65419884169884)"></path></g></g></g><g class="tp-graph" transform="translate(62.47586872586872, 0)"><rect data-gra="graph-name" fill="none" x="0" y="4.3293479681015015" width="20.86872586872587" height="0"></rect> <g data-gra="path-name" transform="translate(0.0003619654298301356,3)"><g transform="scale(0.94)" fill="#FF0000"><path d="M9.60 0.97L9.60 0.97Q7.19 0.97 5.70 1.01Q4.22 1.05 3.36 1.11L3.36 1.11Q2.36 1.19 1.89 1.25L1.89 1.25Q2.11-0.31 2.28-2.07Q2.44-3.83 2.58-5.66Q2.72-7.49 2.80-9.30Q2.89-11.10 2.94-12.74L2.94-12.74Q3.05-16.60 3.08-20.45L3.08-20.45Q3.05-24.31 2.94-27.92L2.94-27.92Q2.89-29.44 2.80-31.09Q2.72-32.75 2.61-34.33Q2.50-35.91 2.34-37.35Q2.19-38.80 2.00-39.96L2.00-39.96L3.80-39.96Q5.30-39.96 6.38-40.00Q7.47-40.04 8.19-40.10L8.19-40.10Q9.02-40.16 9.60-40.24L9.60-40.24Q9.46-37.46 9.37-34.66Q9.27-31.86 9.21-29.32Q9.16-26.78 9.13-24.67Q9.10-22.56 9.10-21.15L9.10-21.15Q9.99-21.09 10.82-21.09Q11.66-21.09 12.46-21.09L12.46-21.09Q14.21-21.09 15.55-21.16Q16.90-21.23 17.79-21.31L17.79-21.31Q17.79-21.48 17.77-22.52Q17.76-23.56 17.73-25.14Q17.71-26.72 17.64-28.69Q17.57-30.66 17.46-32.69Q17.34-34.72 17.18-36.62Q17.01-38.52 16.76-39.96L16.76-39.96L18.54-39.96Q19.95-39.96 20.99-40.00Q22.03-40.04 22.73-40.10L22.73-40.10Q23.53-40.16 24.09-40.24L24.09-40.24Q24.00-38.44 23.94-36.59Q23.87-34.74 23.82-32.95Q23.78-31.16 23.75-29.49Q23.73-27.81 23.70-26.31L23.70-26.31Q23.64-22.81 23.64-19.56L23.64-19.56Q23.64-16.35 23.70-13.02L23.70-13.02Q23.73-11.60 23.75-10.03Q23.78-8.46 23.82-6.84Q23.87-5.22 23.94-3.61Q24.00-2.00 24.09-0.50L24.09-0.50Q21.76-0.50 20.31-0.46Q18.87-0.42 18.07-0.36L18.07-0.36Q17.12-0.28 16.65-0.22L16.65-0.22Q16.90-1.91 17.07-3.83Q17.23-5.74 17.36-7.71Q17.48-9.69 17.55-11.60Q17.62-13.51 17.68-15.18L17.68-15.18Q16.35-15.32 15.12-15.36Q13.90-15.40 12.79-15.40L12.79-15.40Q11.63-15.40 10.70-15.37Q9.77-15.35 9.10-15.29L9.10-15.29Q9.10-13.79 9.13-11.82Q9.16-9.85 9.23-7.70Q9.30-5.55 9.38-3.32Q9.46-1.08 9.60 0.97Z" transform="translate(-1.8870656370656371, 41.65419884169884)"></path></g></g></g><g transform="translate(84.3445945945946, 0)"><g data-gra="path-name" fill="#333" transform="translate(0,3)"><g transform="scale(0.94)"><path d="M2.61-3.30L2.61-3.30Q2.61-5.44 2.51-7.58Q2.41-9.71 2.30-11.86Q2.19-14.01 2.10-16.19Q2.00-18.37 2.00-20.62L2.00-20.62Q2.00-22.98 2.15-25.41Q2.30-27.83 2.75-30.10Q3.19-32.36 3.97-34.34Q4.75-36.33 5.99-37.80Q7.24-39.27 9.05-40.13Q10.85-40.99 13.29-40.99L13.29-40.99Q15.62-40.99 17.34-40.25Q19.06-39.52 20.27-38.24Q21.48-36.96 22.24-35.24Q23.01-33.52 23.44-31.53Q23.87-29.53 24.03-27.36Q24.20-25.20 24.20-23.06L24.20-23.06Q24.20-22.51 24.18-22.09Q24.17-21.67 24.16-21.19Q24.14-20.70 24.10-20.04Q24.06-19.37 24.00-18.30Q23.95-17.23 23.88-15.68Q23.81-14.13 23.73-11.85Q23.64-9.57 23.53-6.48Q23.42-3.39 23.31 0.75L23.31 0.75L15.01 0.44Q15.49-2.72 15.86-5.90Q16.23-9.07 16.48-11.82L16.48-11.82Q14.35-11.99 12.52-11.99L12.52-11.99Q11.57-11.99 10.74-11.96Q9.91-11.93 9.27-11.88L9.27-11.88Q9.35-10.43 9.46-8.82Q9.57-7.22 9.71-5.58Q9.85-3.94 10.02-2.34Q10.18-0.75 10.41 0.69L10.41 0.69L2.55 0.92Q2.61-0.11 2.61-1.18Q2.61-2.25 2.61-3.30ZM8.94-17.73L8.94-17.73Q9.77-17.68 10.57-17.68Q11.38-17.68 12.15-17.68L12.15-17.68Q15.12-17.68 16.93-17.84L16.93-17.84Q17.09-19.81 17.27-21.81Q17.46-23.81 17.46-26.09L17.46-26.09Q17.46-30.89 16.47-33.40Q15.49-35.91 13.57-35.91L13.57-35.91Q12.52-35.91 11.63-35.16Q10.74-34.41 10.09-32.84Q9.44-31.28 9.06-28.89Q8.69-26.50 8.69-23.26L8.69-23.26Q8.69-22.12 8.76-20.83Q8.82-19.54 8.94-17.73Z" transform="translate(-1.9980694980694982, 41.65419884169884)"></path></g></g></g><g transform="translate(106.21332046332046, 0)"><g data-gra="path-name" fill="#333" transform="translate(0,3)"><g transform="scale(0.94)"><path d="M21.76 0.64L21.76 0.64Q19.51 0.58 17.58 0.57Q15.65 0.56 13.93 0.56L13.93 0.56Q10.57 0.56 8.31 0.62Q6.05 0.69 4.63 0.75L4.63 0.75Q2.97 0.83 2.00 0.92L2.00 0.92Q2.19-0.94 2.34-2.83Q2.50-4.72 2.61-6.55Q2.72-8.38 2.80-10.07Q2.89-11.77 2.94-13.26L2.94-13.26Q3.05-16.76 3.08-19.95L3.08-19.95Q3.05-23.28 2.94-26.78L2.94-26.78Q2.89-28.28 2.80-29.93Q2.72-31.58 2.61-33.30Q2.50-35.02 2.34-36.76Q2.19-38.49 2.00-40.13L2.00-40.13Q5.47-39.99 8.20-39.92Q10.93-39.85 13.07-39.85L13.07-39.85Q15.18-39.85 16.71-39.89Q18.23-39.93 19.20-39.99L19.20-39.99Q20.34-40.04 21.09-40.13L21.09-40.13Q21.09-40.16 21.09-39.63Q21.09-39.10 21.12-38.24Q21.15-37.38 21.22-36.30Q21.28-35.22 21.42-34.11L21.42-34.11Q18.20-34.41 15.79-34.51Q13.38-34.61 11.66-34.61L11.66-34.61Q10.93-34.61 10.39-34.61Q9.85-34.61 9.38-34.55L9.38-34.55Q9.32-31.47 9.30-28.76Q9.27-26.06 9.27-23.64L9.27-23.64Q11.21-23.70 12.74-23.80Q14.26-23.89 15.35-24.03L15.35-24.03Q16.60-24.17 17.57-24.34L17.57-24.34Q17.54-24.14 17.54-23.89L17.54-23.89Q17.51-23.67 17.51-23.37Q17.51-23.06 17.51-22.67L17.51-22.67Q17.51-21.78 17.57-20.55Q17.62-19.31 17.79-17.90L17.79-17.90Q14.79-18.29 12.63-18.39Q10.46-18.48 9.27-18.48L9.27-18.48Q9.27-15.60 9.30-13.33Q9.32-11.07 9.37-9.35Q9.41-7.63 9.45-6.41Q9.49-5.19 9.55-4.38L9.55-4.38Q12.38-4.44 14.60-4.66Q16.82-4.88 18.34-5.12Q19.87-5.36 20.67-5.55Q21.48-5.74 21.48-5.80L21.48-5.80Q21.45-5.66 21.45-5.49L21.45-5.49Q21.42-5.36 21.42-5.13Q21.42-4.91 21.42-4.61L21.42-4.61Q21.42-3.83 21.48-2.53Q21.53-1.22 21.76 0.64Z" transform="translate(-1.9980694980694982, 41.65419884169884)"></path></g></g></g><g transform="translate(125.78648648648648, 0)"><g data-gra="path-name" fill="#333" transform="translate(0,3)"><g transform="scale(0.94)"><path d="M21.15 1.75L21.15 1.75Q19.15 1.69 17.37 1.69Q15.60 1.69 14.04 1.69L14.04 1.69Q10.88 1.69 8.62 1.76Q6.35 1.83 4.86 1.89L4.86 1.89Q3.14 1.97 1.94 2.05L1.94 2.05Q2.14 0.19 2.29-1.72Q2.44-3.64 2.55-5.49Q2.66-7.35 2.75-9.10Q2.83-10.85 2.89-12.40L2.89-12.40Q3.00-16.01 3.02-19.37L3.02-19.37Q3.00-22.70 2.89-26.20L2.89-26.20Q2.83-27.70 2.75-29.35Q2.66-31.00 2.55-32.72Q2.44-34.44 2.29-36.17Q2.14-37.91 1.94-39.55L1.94-39.55L10.13-39.96Q9.60-33.69 9.41-27.88Q9.21-22.06 9.21-17.15L9.21-17.15Q9.21-12.43 9.31-9.07Q9.41-5.72 9.49-3.97L9.49-3.97L9.60-3.97Q11.77-3.97 13.83-4.30Q15.90-4.63 17.54-5.05L17.54-5.05Q19.45-5.52 21.15-6.13L21.15-6.13Q21.12-5.83 21.12-5.36L21.12-5.36Q21.09-4.97 21.09-4.34Q21.09-3.72 21.09-2.83L21.09-2.83Q21.09-1.94 21.09-0.82Q21.09 0.31 21.15 1.75Z" transform="translate(-1.9425675675675675, 41.65419884169884)"></path></g></g></g><g transform="translate(144.83793436293436, 0)"><g data-gra="path-name" fill="#333" transform="translate(0,3)"><g transform="scale(0.94)"><path d="M23.87-9.55L23.87-9.55Q23.59-6.41 22.44-4.34Q21.28-2.28 19.62-1.04Q17.95 0.19 15.94 0.69Q13.93 1.19 11.93 1.19L11.93 1.19Q9.85 1.19 7.92 0.62Q5.99 0.06 4.52-1.08Q3.05-2.22 2.18-3.94Q1.30-5.66 1.30-7.96L1.30-7.96Q1.30-9.74 1.85-10.93Q2.39-12.13 3.19-12.85Q4.00-13.57 4.91-13.86Q5.83-14.15 6.60-14.15L6.60-14.15Q7.41-14.15 8.27-13.90Q9.13-13.65 9.85-13.07Q10.57-12.49 11.03-11.50Q11.49-10.52 11.49-9.05L11.49-9.05Q11.49-9.02 11.45-8.53Q11.41-8.05 11.13-7.42Q10.85-6.80 10.28-6.20Q9.71-5.61 8.63-5.36L8.63-5.36Q9.41-4.38 10.45-3.90Q11.49-3.41 12.21-3.41L12.21-3.41Q12.93-3.41 13.86-3.66Q14.79-3.91 15.61-4.51Q16.43-5.11 17.00-6.09Q17.57-7.08 17.57-8.58L17.57-8.58Q17.57-10.32 16.97-11.68Q16.37-13.04 15.44-14.08Q14.51-15.12 13.36-15.92Q12.21-16.71 11.13-17.34L11.13-17.34Q10.41-17.76 9.41-18.33Q8.41-18.90 7.33-19.69Q6.24-20.48 5.19-21.49Q4.13-22.51 3.29-23.80Q2.44-25.09 1.93-26.67Q1.42-28.25 1.42-30.17L1.42-30.17Q1.42-33.02 2.41-35.17Q3.41-37.33 5.01-38.77Q6.60-40.21 8.63-40.93Q10.66-41.65 12.74-41.65L12.74-41.65Q14.82-41.65 16.71-41.09Q18.59-40.52 20.02-39.45Q21.45-38.38 22.30-36.89Q23.14-35.41 23.14-33.58L23.14-33.58Q23.14-31.72 22.53-30.64Q21.92-29.55 21.08-29.00Q20.23-28.44 19.36-28.29Q18.48-28.14 17.95-28.14L17.95-28.14Q17.29-28.14 16.57-28.39Q15.85-28.64 15.25-29.14Q14.65-29.64 14.26-30.36Q13.88-31.08 13.88-32.05L13.88-32.05Q13.90-32.66 14.01-33.27L14.01-33.27Q14.13-33.80 14.35-34.41Q14.57-35.02 15.01-35.58L15.01-35.58Q14.57-35.97 14.15-36.19Q13.74-36.41 13.38-36.52L13.38-36.52Q12.96-36.63 12.57-36.66L12.57-36.66Q11.79-36.66 11.00-36.38Q10.21-36.10 9.56-35.55Q8.91-34.99 8.49-34.15Q8.08-33.30 8.08-32.16L8.08-32.16Q8.08-30.83 8.49-29.76Q8.91-28.69 9.80-27.70Q10.68-26.70 12.06-25.67Q13.43-24.64 15.35-23.42L15.35-23.42Q17.59-22.01 19.22-20.59Q20.84-19.18 21.88-17.68Q22.92-16.18 23.42-14.53Q23.92-12.88 23.92-10.96L23.92-10.96Q23.92-10.63 23.92-10.28Q23.92-9.93 23.87-9.55Z" transform="translate(-1.3042953667953667, 41.65419884169884)"></path></g></g></g></g> <g data-gra="path-slogan" fill-rule="" class="tp-slogan" fill="#333" transform="translate(31.677658081054688,50.08194708824158)"><!----> <!----> <g transform="scale(1, 1)"><g transform="scale(1.6200000000000006)"><path d="M7.17-6.09L7.17-6.09L6.09-6.09Q6-7.73 3.94-7.83L3.94-7.83Q2.02-7.78 2.02-6.33L2.02-6.33Q2.02-5.39 3.05-5.25L3.05-5.25L5.48-4.69Q7.41-4.22 7.41-2.34L7.41-2.34Q7.36 0.05 4.03 0.14L4.03 0.14Q2.20 0.14 1.45-0.61L1.45-0.61Q0.52-1.31 0.56-2.77L0.56-2.77L1.69-2.77Q1.73-0.80 4.03-0.75L4.03-0.75Q6.28-0.80 6.33-2.20L6.33-2.20Q6.52-3.38 4.45-3.75L4.45-3.75L2.67-4.13Q0.84-4.64 0.84-6.19L0.84-6.19Q0.98-8.72 3.84-8.81L3.84-8.81Q7.08-8.81 7.17-6.09ZM11.86-8.58L13.03-8.58L13.03-1.03L17.39-1.03L17.39 0L11.86 0L11.86-8.58ZM28.31-4.27L28.31-4.27Q28.13-7.64 25.31-7.83L25.31-7.83Q22.45-7.69 22.31-4.27L22.31-4.27Q22.45-0.94 25.31-0.80L25.31-0.80Q28.13-0.98 28.31-4.27ZM29.48-4.27L29.48-4.27Q29.20 0 25.31 0.14L25.31 0.14Q21.38 0 21.09-4.27L21.09-4.27Q21.33-8.72 25.31-8.81L25.31-8.81Q29.20-8.67 29.48-4.27ZM40.27-3.61L37.64-3.61L37.64-4.59L41.39-4.59L41.39 0L40.64 0L40.36-1.08Q39.38 0.09 37.55 0.14L37.55 0.14Q35.81 0.14 34.88-0.75L34.88-0.75Q33.47-2.06 33.52-4.36L33.52-4.36Q33.84-8.63 37.59-8.81L37.59-8.81Q40.78-8.63 41.25-6L41.25-6L40.13-6Q39.66-7.78 37.55-7.83L37.55-7.83Q34.88-7.64 34.73-4.31L34.73-4.31Q34.73-0.75 37.59-0.75L37.59-0.75Q38.63-0.75 39.38-1.31L39.38-1.31Q40.31-2.06 40.27-3.61L40.27-3.61ZM51.84 0L51-2.48L47.53-2.48L46.64 0L45.47 0L48.70-8.58L50.02-8.58L53.11 0L51.84 0ZM49.27-7.31L47.91-3.52L50.58-3.52L49.31-7.31L49.27-7.31ZM58.55-8.58L62.86-1.64L62.86-8.58L63.98-8.58L63.98 0L62.67 0L58.31-6.94L58.27-6.94L58.27 0L57.14 0L57.14-8.58L58.55-8.58Z" transform="translate(-0.5602678571428572, 8.8125)"></path></g></g></g></g><defs v-gra="od"></defs></svg>